<?xml version="1.0" encoding="utf-8"?>
<!-- Generator: Adobe Illustrator 25.2.1, SVG Export Plug-In . SVG Version: 6.00 Build 0)  -->
<svg version="1.1" id="Calque_1" xmlns="http://www.w3.org/2000/svg" xmlns:xlink="http://www.w3.org/1999/xlink" x="0px" y="0px"
	 viewBox="0 0 425.2 425.2" style="enable-background:new 0 0 425.2 425.2;" xml:space="preserve">
<style type="text/css">
	.st0{fill:#E30613;}
	.st1{fill:#FFFFFF;}
	.st2{fill:#0063AF;}
	.st3{fill:#EF7D00;}
	.st4{fill:#8C1D82;}
	.st5{fill:#0095DB;}
	.st6{fill:#009640;}
	.st7{fill:#FBBA00;}
	.st8{fill:#95C11F;}
	.st9{fill:#5C2778;}
	.st10{fill:#A64B24;}
	.st11{fill:#F59C00;}
	.st12{fill:#F18700;}
	.st13{fill:#814A36;}
	.st14{fill:#D9328A;}
	.st15{fill:#76B82A;}
	.st16{fill:#00B1EB;}
	.st17{fill:#CE7717;}
	.st18{fill:#E63312;}
	.st19{fill:#0099BC;}
	.st20{fill:#009A93;}
	.st21{fill:#EC619F;}
	.st22{fill:#5E4F15;}
	.st23{fill:#41BBC7;}
	.st24{fill:#93C125;}
	.st25{fill:#931D81;}
	.st26{fill:#F2920E;}
	.st27{fill:#17428D;}
	.st28{fill:#E62D49;}
	.st29{fill:#4DAF47;}
	.st30{fill:#EC6FA7;}
	.st31{fill:#1B85AA;}
	.st32{fill:#1EAFE6;}
	.st33{fill:#235FA9;}
</style>
<rect x="-2.83" y="-2.83" class="st3" width="430.87" height="430.87"/>
<g>
	<path class="st1" d="M156.34,263.85c6.77,6.53,14.2,11.89,22.26,16.09s16.88,6.3,26.46,6.3c10.98,0,19.74-2.27,26.29-6.82
		c6.54-4.55,9.81-11.02,9.81-19.42c0-4.9-0.88-9.33-2.63-13.29c-1.75-3.96-4.85-7.29-9.29-9.97c-4.44-2.68-10.51-4.78-18.23-6.3
		c-7.71-1.51-17.65-2.27-29.79-2.27v-36.38c10.04,0,18.4-0.7,25.06-2.1c6.66-1.4,12.03-3.44,16.12-6.12
		c4.09-2.68,7.01-5.83,8.76-9.45c1.75-3.61,2.63-7.64,2.63-12.07c0-7.7-2.34-13.7-7.01-18.02c-4.68-4.31-11.45-6.47-20.33-6.47
		c-7.95,0-15.13,1.75-21.56,5.25c-6.43,3.5-13.14,8.28-20.15,14.34l-25.94-31.49c10.28-8.86,21.08-15.8,32.42-20.82
		c11.33-5.01,23.89-7.52,37.68-7.52c11.45,0,21.91,1.34,31.37,4.02c9.46,2.68,17.53,6.65,24.19,11.9
		c6.66,5.25,11.86,11.6,15.6,19.07c3.74,7.47,5.61,16.09,5.61,25.89c0,11.67-3.21,21.52-9.64,29.56
		c-6.43,8.05-15.6,14.64-27.52,19.77v1.4c12.85,3.73,23.42,10.09,31.72,19.07c8.29,8.98,12.44,20.7,12.44,35.16
		c0,10.27-2.22,19.42-6.66,27.46c-4.44,8.05-10.4,14.81-17.88,20.29c-7.48,5.48-16.24,9.68-26.29,12.59
		c-10.05,2.91-20.68,4.37-31.9,4.37c-18.23,0-33.65-2.86-46.27-8.57c-12.62-5.71-23.02-13.35-31.19-22.92L156.34,263.85z"/>
</g>
</svg>
